<svg width="335" height="260" viewBox="0 0 335 260" fill="none" xmlns="http://www.w3.org/2000/svg">
<path d="M292.516 167.687C272.046 211.82 237.743 232.839 225.986 239.361C223.429 226.054 217.464 185.951 237.934 141.815C242.641 131.668 261.911 92.8361 304.46 70.1407C307.022 83.4493 312.981 123.553 292.516 167.687Z" fill="#C2E8E2"/>
<path d="M239.495 207.942L225.677 237.682C225.783 238.279 225.889 238.846 225.987 239.361C226.39 239.138 226.828 238.893 227.286 238.631L233.51 225.239L257.721 216.001C258.846 214.936 259.971 213.841 261.106 212.704L234.643 222.798L252.267 184.874L291.675 169.435C291.956 168.851 292.241 168.281 292.517 167.687C292.628 167.447 292.726 167.207 292.835 166.966L253.409 182.413L273.271 139.668L305.548 123.935C305.659 123.187 305.761 122.444 305.858 121.701L274.519 136.975L304.78 71.8551C304.669 71.2495 304.563 70.6691 304.461 70.1407C304.037 70.3689 303.625 70.6087 303.204 70.8419L281.856 116.784L277.761 88.6359C277.2 89.1307 276.643 89.6155 276.095 90.1086L280.424 119.864L260.97 161.736L250.092 120.28C249.621 120.988 249.166 121.681 248.72 122.372L259.701 164.222L259.827 164.188L240.769 205.202L230.545 160.929C230.167 162.132 229.81 163.324 229.465 164.515L239.495 207.942Z" fill="white"/>
<path d="M290.141 240.47C261.636 259.609 233.114 259.871 223.17 259.502C226.405 250.076 237.275 222.319 266.439 201.869C273.151 197.168 299.613 179.652 335 181.103C331.963 190.309 320.961 219.776 290.141 240.47Z" fill="#F6E5C9"/>
<path d="M259.844 235.075L291.034 239.848C291.785 239.336 292.532 238.816 293.259 238.293L262.044 233.517L300.561 206.202L322.112 207.843C322.504 207.237 322.886 206.64 323.256 206.048L302.957 204.501L334.708 181.984C334.814 181.673 334.91 181.378 335 181.103C334.261 181.073 333.526 181.059 332.791 181.048L319.003 190.829L322.678 181.348C321.981 181.403 321.293 181.472 320.609 181.541L316.25 192.778L278.765 219.363L286.318 190.721C285.575 191.052 284.848 191.379 284.135 191.709L276.442 220.888L276.57 220.923L239.875 246.945L248.637 217.32C247.643 218.377 246.679 219.437 245.759 220.497L237.424 248.684L223.497 258.561C223.382 258.891 223.271 259.205 223.17 259.502C224.592 259.557 226.405 259.592 228.529 259.565L225.909 259.141L259.844 235.075Z" fill="white"/>
<path d="M78.4747 222.98C77.7231 221.24 76.5251 221.21 75.4085 222.512C74.6817 223.362 74.622 224.362 74.5672 225.681C74.4909 227.566 74.7547 229.3 75.4599 230.937C75.0932 230.357 74.7116 229.79 74.3117 229.24C73.6065 228.279 72.8085 227.313 71.9805 226.38C70.7908 220.819 75.0467 220.09 74.7929 217.216C74.7448 216.659 74.5457 216.324 74.4229 216.148C73.8156 215.311 72.5712 215.096 71.7051 215.314C70.1836 215.702 69.5464 217.458 69.339 218.042C68.5658 220.184 69.203 222.743 70.4723 224.75C69.0371 223.242 67.635 221.901 66.5781 220.918C66.0471 217.896 66.6196 216.238 67.2949 215.281C67.6052 214.843 68.297 214.031 68.6123 212.721C68.9524 211.312 68.7019 210.329 67.4857 209.723C66.6163 209.291 65.4598 209.299 64.7297 209.732C63.1286 210.695 63.5318 213.781 63.8072 215.933C63.9814 217.282 64.3348 218.463 64.9753 219.451C63.1236 217.783 61.481 216.409 59.6492 214.598C59.9213 212.919 60.8737 206.791 60.3511 204.939C59.9296 203.467 58.2007 202.381 57.177 202.715C56.0902 203.076 55.8612 204.862 55.75 205.696C55.4481 208.041 56.286 210.424 57.615 212.468C57.4491 212.288 57.2915 212.12 57.1222 211.927C55.6405 210.252 54.3961 208.719 53.3077 207.117C53.1335 204.493 52.3304 195.965 49.0269 195.283C48.194 195.111 46.9744 195.39 46.3589 196.185C45.2671 197.584 46.4485 200.113 46.9827 201.269C48.4014 204.309 50.7973 206.263 52.8365 207.477C54.4376 209.899 56.2594 212.008 58.1924 213.954C53.092 212.669 52.2076 209.114 50.2282 209.264C49.0982 209.351 47.9683 210.453 47.8787 211.57C47.7344 213.382 50.4837 214.714 51.154 215.036C54.3563 216.586 57.7378 215.666 59.3439 215.088C60.9401 216.621 62.5893 218.075 64.232 219.536C62.9461 218.964 61.4893 218.801 59.9976 219.08C58.4695 219.363 55.8015 220.184 55.6737 221.764C55.6057 222.584 56.2179 223.512 57.0077 223.844C58.0862 224.293 59.1913 223.495 60.6348 222.817C61.8792 222.228 63.7408 221.584 66.2711 221.365C67.6052 222.581 68.9176 223.834 70.1703 225.157C69.3424 224.77 68.3618 224.689 67.2269 224.78C65.8298 224.895 61.5988 225.239 61.0297 227.386C60.8687 227.982 60.9749 228.755 61.413 229.171C62.0501 229.773 63.1999 229.451 64.8027 228.978C67.109 228.301 68.3833 227.23 71.6453 226.798C73.6248 229.099 75.4035 231.667 76.8221 234.725C74.7414 232.402 71.1857 232.1 69.6692 233.272C69.5215 233.388 68.2722 234.351 68.531 235.545C68.7102 236.361 69.5133 236.906 70.2217 237.048C72.027 237.409 72.9827 234.784 77.3829 236.013C78.6489 239.088 79.5747 242.634 79.9962 246.864C80.0344 247.247 80.6068 247.187 80.5686 246.804C80.0426 241.544 78.7003 236.881 76.5765 232.87C77.1838 229.738 77.728 228.039 78.1395 227.054C78.5942 225.977 78.9592 224.097 78.4747 222.98Z" fill="#C2E8E2"/>
<path d="M75.6341 256.852C72.4517 251.746 68.7351 247.666 64.5555 244.66C63.6048 241.144 63.3061 239.126 63.2348 237.915C63.1535 236.575 62.5844 234.472 61.5308 233.572C59.8914 232.182 58.652 232.766 58.1625 234.673C57.844 235.914 58.2903 236.966 58.8943 238.34C59.7604 240.311 60.9019 241.946 62.44 243.256C61.778 242.854 61.1027 242.466 60.4191 242.11C59.2161 241.488 57.912 240.913 56.5996 240.384C52.5909 235.309 56.5747 232.383 54.8756 229.575C54.5438 229.03 54.1738 228.785 53.9581 228.674C52.9128 228.128 51.5373 228.549 50.7591 229.22C49.4002 230.387 49.6342 232.512 49.7105 233.217C49.9992 235.802 51.9355 238.091 54.2418 239.487C52.0118 238.684 49.9146 238.034 48.3333 237.575C46.2742 234.758 46.027 232.771 46.2394 231.444C46.334 230.838 46.6343 229.652 46.2991 228.154C45.9391 226.539 45.1908 225.663 43.6411 225.663C42.536 225.669 41.3596 226.269 40.832 227.089C39.6739 228.893 41.6351 231.843 42.9989 233.9C43.8568 235.188 44.8091 236.218 45.959 236.897C43.2329 236.141 40.8619 235.584 38.081 234.673C37.4937 232.735 35.3964 226.041 33.9479 224.439C32.7748 223.147 30.4635 222.924 29.5891 223.792C28.655 224.719 29.317 226.663 29.624 227.571C30.4901 230.12 32.5459 232.127 34.9335 233.534C34.6697 233.437 34.4224 233.346 34.1553 233.234C31.8025 232.284 29.76 231.353 27.8387 230.28C26.3487 227.686 21.2433 219.382 17.5216 220.381C16.5875 220.631 15.4825 221.54 15.2502 222.666C14.842 224.659 17.3093 226.638 18.4392 227.544C21.4175 229.922 24.8487 230.687 27.5417 230.885C30.3972 232.543 33.3191 233.762 36.2708 234.758C30.4055 236.063 27.7159 232.881 25.7713 234.054C24.6629 234.72 24.059 236.429 24.5302 237.61C25.2951 239.537 28.7695 239.49 29.619 239.477C33.6675 239.418 36.6624 236.743 38.013 235.325C40.3608 236.055 42.7235 236.686 45.0796 237.318C43.5299 237.429 42.0217 238.056 40.6843 239.069C39.2657 240.148 36.9544 242.355 37.6131 244.034C37.9566 244.905 39.0483 245.546 40.0206 245.477C41.3513 245.378 42.0781 243.999 43.2113 242.562C44.1919 241.324 45.7682 239.713 48.2454 238.185C50.195 238.739 52.1313 239.336 54.051 240.032C53.0356 240.083 52.0201 240.53 50.9383 241.191C49.5661 242.025 45.4164 244.544 45.9125 247.032C46.0486 247.723 46.5414 248.461 47.2001 248.659C48.1558 248.951 49.1663 248.027 50.5633 246.727C52.5809 244.845 53.3508 243.102 56.4635 240.98C59.6459 242.32 62.7553 244.029 65.7402 246.43C62.445 245.116 58.6603 246.641 57.6963 248.615C57.6017 248.808 56.8119 250.437 57.6747 251.519C58.2654 252.262 59.3605 252.411 60.1586 252.193C62.1861 251.635 61.8112 248.439 66.9381 247.443C69.7837 249.939 72.5148 253.091 75.0766 257.204C75.3106 257.573 75.8631 257.221 75.6341 256.852Z" fill="#C2E8E2"/>
<path d="M138.056 260C103.222 260 68.3918 260 33.5615 260C35.9359 256.311 39.9246 251.445 46.16 249.208C53.5169 246.567 56.4936 250.278 63.3113 247.388C70.061 244.528 68.9045 240.14 78.9511 234.175C83.5422 231.447 86.771 230.588 89.6083 230.34C91.0269 230.216 94.3785 230.065 98.2528 231.331C105.286 233.633 105.494 237.816 111.364 241.114C119.663 245.777 125.033 240.569 131.192 244.965C133.999 246.975 137.135 251.012 138.056 260Z" fill="#F6E5C9"/>
<path d="M229.346 260H108.548C101.463 260 95.6689 254.142 95.6689 246.983V13.02C95.6689 5.85751 101.463 0 108.548 0H229.346C236.425 0 242.219 5.85751 242.219 13.02V246.983C242.219 254.142 236.425 260 229.346 260Z" fill="#9BCAC3"/>
<path d="M236.088 20.7681V236.661C236.088 240.302 233.415 243.342 230.022 243.754C229.758 243.793 229.499 243.811 229.24 243.811H108.663C104.892 243.811 101.796 240.586 101.796 236.661V20.7681C101.796 16.8463 104.887 13.6307 108.66 13.6307H229.24C232.99 13.6307 236.088 16.8463 236.088 20.7681Z" fill="white"/>
<path d="M236.088 20.7681V23.7354H101.796V20.7681C101.796 16.8346 104.887 13.6307 108.66 13.6307H229.24C232.999 13.6307 236.088 16.8346 236.088 20.7681Z" fill="#90BCB6"/>
<path d="M206.85 22.1503H205.007V19.6677H206.85V22.1503Z" fill="white"/>
<path d="M209.879 22.1501H208.035V18.4146H209.879V22.1501Z" fill="white"/>
<path d="M212.908 22.1503H211.068V17.0795H212.908V22.1503Z" fill="white"/>
<path d="M215.94 22.15H214.097V15.7474H215.94V22.15Z" fill="white"/>
<path d="M221.891 16.8681V17.8175H220.396V20.0803H221.891V21.0298H230.582V16.8681H221.891Z" fill="white"/>
<path d="M188.425 8.09018H149.456C148.637 8.09018 147.975 7.41754 147.975 6.58722C147.975 5.76361 148.637 5.08929 149.456 5.08929H188.425C189.244 5.08929 189.906 5.76361 189.906 6.58722C189.906 7.41754 189.244 8.09018 188.425 8.09018Z" fill="#90BCB6"/>
<path d="M144.569 6.58707C144.569 7.92397 143.502 9.00589 142.181 9.00589C140.86 9.00589 139.79 7.92397 139.79 6.58707C139.79 5.25689 140.86 4.17496 142.181 4.17496C143.502 4.17496 144.569 5.25689 144.569 6.58707Z" fill="#90BCB6"/>
<path d="M198.091 6.58707C198.091 7.92397 197.021 9.00589 195.7 9.00589C194.383 9.00589 193.312 7.92397 193.312 6.58707C193.312 5.25689 194.383 4.17496 195.7 4.17496C197.021 4.17496 198.091 5.25689 198.091 6.58707Z" fill="#90BCB6"/>
<path d="M180.809 256.058H157.082C154.826 256.058 152.987 254.194 152.987 251.918V251.767C152.987 249.491 154.826 247.627 157.082 247.627H180.809C183.064 247.627 184.904 249.491 184.904 251.767V251.918C184.904 254.194 183.064 256.058 180.809 256.058Z" fill="#90BCB6"/>
<path d="M111.102 70.884H14.9351C10.3988 70.884 6.69043 74.633 6.69043 79.2157V102.631C6.69043 107.213 10.3988 110.966 14.9351 110.966H19.4034V118.945C19.4034 119.653 19.8248 120.294 20.4736 120.569C20.6859 120.654 20.9166 120.701 21.1372 120.701C21.5869 120.701 22.0332 120.52 22.3651 120.186L31.4874 110.966H111.102C115.638 110.966 119.345 107.213 119.345 102.631V79.2157C119.345 74.633 115.638 70.884 111.102 70.884Z" fill="#C2E8E2"/>
<path d="M104.606 83.7361H21.4297V81.8607H104.606V83.7361Z" fill="white"/>
<path d="M104.606 91.8615H21.4297V89.9844H104.606V91.8615Z" fill="white"/>
<path d="M64.7983 99.9855H21.4297V98.1101H64.7983V99.9855Z" fill="white"/>
<path d="M45.973 161.328C42.8934 164.612 39.809 167.898 36.7477 171.179C34.0365 168.705 31.624 167.877 29.8072 167.615C28.226 167.409 27.7813 167.709 23.4557 167.615C19.7822 167.541 17.9637 167.502 16.2182 167.013C13.6365 166.301 12.0602 164.986 8.99728 162.396C5.4897 159.412 -1.0443 153.186 0.142037 151.215C0.404193 150.782 1.10936 150.408 1.77637 150.314C2.70719 150.202 3.50195 150.686 3.76411 150.876C8.21579 153.728 13.0242 156.618 14.0098 157.18C20.041 160.56 28.0434 157.97 28.1712 156.734C28.226 156.167 26.6895 155.325 23.605 153.598C22.271 152.864 21.1378 152.324 20.6533 151.066C20.5803 150.876 20.1738 149.824 20.6533 149.133C21.1195 148.454 22.271 148.382 24.0514 148.682C27.5424 149.244 30.159 150.631 32.6096 151.966C36.2284 153.915 38.0469 154.912 38.6243 155.286C40.6087 156.599 43.2469 158.532 45.973 161.328Z" fill="#DEC5B3"/>
<path d="M243.032 227.128C240.954 231.482 237.668 237.395 232.6 243.754C223.561 243.776 214.502 243.793 205.462 243.811C207.951 240.135 211.047 235.496 214.578 230.078C219.849 221.95 226.177 211.647 224.916 203.973C224.878 203.711 224.822 203.505 224.784 203.334C224.135 200.705 222.041 197.988 217.827 192.543C213.388 186.801 209.192 182.485 206.129 179.578C205.89 200.989 205.666 222.399 205.424 243.811H130.024C130.288 221.314 130.563 198.83 130.824 176.333C127.374 181.528 121.657 188.962 112.856 195.921C108.4 199.452 105.69 201.591 101.796 203.166C86.2954 209.431 69.1607 199.863 61.3109 195.549C55.1652 192.169 44.8266 185.359 35.5449 172.463C39.24 168.526 42.9533 164.566 46.6451 160.624C54.8881 167.134 62.5736 170.965 68.1038 173.253C77.5497 177.156 86.2739 180.759 93.5329 176.95C97.598 174.811 99.7898 171.789 101.796 168.898C112.465 153.53 127.54 137.638 140.792 129.697C143.578 128.027 147.292 126.094 152.078 124.424C154.733 123.488 157.702 122.625 161.045 121.951C167.468 122.229 173.889 122.513 180.328 122.813C183.579 123.994 186.806 125.175 190.056 126.361C203.979 135.666 220.89 149.533 236.091 169.668C241.044 176.237 245.24 182.692 248.788 188.849C248.788 188.849 249.085 189.769 249.343 190.705C253.447 205.494 246.689 219.454 243.032 227.128Z" fill="#C9DEF3"/>
<path d="M172.105 138.723C172.424 167.211 172.755 195.716 173.074 224.221C170.474 227.015 167.857 229.811 165.259 232.606C162.769 229.699 160.301 226.792 157.812 223.882L165.722 138.423C164.791 136.491 163.882 134.558 162.994 132.643C165.276 130.448 167.56 128.271 169.825 126.094C171.642 128.478 173.444 130.861 175.261 133.265C174.204 135.081 173.145 136.903 172.105 138.723Z" fill="white"/>
<path d="M190.056 126.361C186.304 130.226 182.558 134.09 178.808 137.955C177.618 136.397 171.642 128.478 169.825 126.094C167.56 128.272 159.817 135.706 158.224 137.226C156.181 132.943 154.137 128.684 152.078 124.424C154.733 123.488 157.701 122.625 161.045 121.951C167.467 122.229 173.889 122.513 180.328 122.813C183.578 123.994 186.806 125.175 190.056 126.361Z" fill="white"/>
<path d="M181.097 115.603C180.877 117.09 180.664 119.245 180.328 122.813C178.917 123.616 175.317 125.42 170.435 125.158C165.572 124.913 162.174 122.774 160.857 121.817C161.194 118.722 161.545 115.642 161.877 112.546C161.023 112.546 159.612 112.452 158.071 111.816C158.071 111.816 154.303 110.241 151.708 104.761C149.031 99.1095 149.571 85.6735 154.27 69.047C159.745 71.6738 167.93 72.2374 167.93 72.2374C180.031 73.0996 180.553 73.1952 181.071 73.8897C183.578 77.2093 181.016 82.1258 178.378 91.8312C177.899 93.6311 177.228 96.2965 176.578 99.5775C176.341 100.351 173.629 109.451 178.307 113.993C178.901 114.557 179.78 115.397 181.097 115.603Z" fill="#DEC5B3"/>
<path d="M195.755 94.6827C195.2 96.8214 194.252 100.725 191.873 105.096C190.391 107.835 185.817 116.261 181.098 115.603C179.78 115.397 178.901 114.557 178.307 113.993C173.63 109.451 176.341 100.351 176.578 99.5774C177.229 96.2964 177.899 93.631 178.378 91.8311C181.017 82.1257 183.578 77.2092 181.071 73.8896C180.554 73.1951 180.031 73.0995 167.93 72.2373C167.93 72.2373 159.745 71.6737 154.341 69.067C152.729 68.277 151.594 67.2856 150.723 65.9722C147.716 61.3342 148.922 53.5107 153.007 50.7145C154.066 50.0016 155.4 49.5504 163.029 50.6592C166.999 51.2211 170.359 51.8786 173.163 52.5529C175.554 53.1367 177.504 53.7204 179.173 54.2824C183.685 55.8591 185.974 57.3403 187.142 58.1656C188.292 58.9724 189.054 59.4236 189.907 60.2472C201.247 71.3953 196.572 91.5695 195.755 94.6827Z" fill="#8A8C94"/>
<path d="M186.293 89.1037L184.113 88.2834C185.014 85.7975 189.19 72.7389 181.931 61.252C179.773 57.8049 176.786 54.8493 173.214 52.5731C173.979 52.5144 175.22 52.5144 176.647 52.9824C177.772 53.3464 178.621 53.8714 179.174 54.2824C181.009 55.9967 182.58 57.8989 183.901 59.9855C191.717 72.4084 187.266 86.4299 186.293 89.1037Z" fill="#E2F1E8"/>
<path d="M185.659 83.0235C181.493 81.9416 176.93 85.7174 175.47 91.4625C174.221 96.3924 175.674 101.146 178.749 103.082C177.866 104.692 177.509 105.127 176.982 105.471C176.532 105.757 175.598 106.363 170.049 105.617C169.06 105.482 168.07 105.315 167.076 105.135C167.008 104.392 166.49 103.743 165.73 103.607L161.426 102.837C160.519 102.674 159.643 103.293 159.482 104.211C159.321 105.13 159.931 106.016 160.841 106.178L165.14 106.952C165.79 107.067 166.409 106.776 166.774 106.272C167.819 106.462 168.86 106.641 169.892 106.779C171.855 107.042 173.29 107.145 174.362 107.145C176.303 107.145 177.058 106.806 177.602 106.457C178.362 105.969 178.822 105.375 179.802 103.577C179.998 103.654 180.176 103.765 180.38 103.817C184.551 104.899 189.112 101.119 190.571 95.3793C192.027 89.6375 189.831 84.1071 185.659 83.0235Z" fill="#EEEEEE"/>
</svg>
